# xmcd
#
# Track frame offsets: 
#        150
#        12620
#        24797
#        40647
#        51072
#        66522
#        79085
#        93600
#        106122
#        118797
#        129950
#        145650
#
# Disc length: 2107 seconds
#
# Revision: 0
# Processed by: cddbd v1.4PL0 Copyright (c) Steve Scherf et al.
# Submitted via: ExactAudioCopy v0.90a11
#
DISCID=9608390c
DTITLE=Irwin Goodman - Poing Poing Poing
DYEAR=1900
DGENRE=
TTITLE0=Kulta ei syyt‰ huoleen
TTITLE1=J‰i sent‰‰n valokuva
TTITLE2=Lievestuoreen Liisa
TTITLE3=Min‰ pid‰n susta - sin‰ pid‰t musta
TTITLE4=Kadun kasvatti
TTITLE5=Kˆˆpenhaminassa vain
TTITLE6=Poing poing poing
TTITLE7=Meid‰n lavstoori
TTITLE8=Konnunsuon pikku Kaisa
TTITLE9=Kohtuus kaikessa
TTITLE10=Yksi tykk‰‰ ‰idist‰
TTITLE11=T‰‰ on maallista vain
EXTD=
EXTT0=
EXTT1=
EXTT2=
EXTT3=
EXTT4=
EXTT5=
EXTT6=
EXTT7=
EXTT8=
EXTT9=
EXTT10=
EXTT11=
PLAYORDER=
